<?xml version="1.0" encoding="iso-8859-1"?>
<!-- Uploaded to: SVG Repo, www.svgrepo.com, Generator: SVG Repo Mixer Tools -->
<svg version="1.1" id="Layer_1" xmlns="http://www.w3.org/2000/svg" xmlns:xlink="http://www.w3.org/1999/xlink" 
	 viewBox="0 0 512 512" xml:space="preserve">
<polygon style="fill:#3C5D76;" points="429.518,64.644 400.65,93.514 433.847,126.711 309.08,126.711 159.377,344.46 0,344.46 
	0,385.288 180.856,385.288 330.558,167.539 433.847,167.539 400.65,200.737 429.518,229.607 512,147.125 "/>
<path style="fill:#1E2E3B;" d="M429.518,64.644l-28.869,28.869l33.199,33.199H309.08l-69.737,101.434
	c7.414,13.901,13.899,28.326,20.07,42.876l71.144-103.482h103.289l-33.196,33.197l28.869,28.869L512,147.126L429.518,64.644z"/>
<polygon style="fill:#CCE9F9;" points="429.518,282.393 400.65,311.263 433.847,344.46 330.558,344.46 180.856,126.711 0,126.711 
	0,167.539 159.377,167.539 309.08,385.288 433.847,385.288 400.65,418.486 429.518,447.356 512,364.874 "/>
<polygon style="fill:#93C7EF;" points="429.518,282.393 400.65,311.263 433.847,344.46 330.558,344.46 244.968,219.966 
	244.968,292.034 309.08,385.288 433.847,385.288 400.65,418.486 429.518,447.356 512,364.874 "/>
</svg>